<svg width="96" height="48" viewBox="0 0 96 48" fill="none" xmlns="http://www.w3.org/2000/svg">
<path d="M17.9261 39V17.1818H25.767V39H17.9261ZM21.8466 14.9091C20.786 14.9091 19.8769 14.5587 19.1193 13.858C18.3617 13.1572 17.983 12.3144 17.983 11.3295C17.983 10.3447 18.3617 9.50189 19.1193 8.80114C19.8769 8.10038 20.786 7.75 21.8466 7.75C22.9167 7.75 23.8258 8.10038 24.5739 8.80114C25.3314 9.50189 25.7102 10.3447 25.7102 11.3295C25.7102 12.3144 25.3314 13.1572 24.5739 13.858C23.8258 14.5587 22.9167 14.9091 21.8466 14.9091ZM49.7053 24.2841H42.4893C42.4515 23.839 42.2952 23.4555 42.0206 23.1335C41.746 22.8116 41.3909 22.5653 40.9553 22.3949C40.5291 22.215 40.0556 22.125 39.5348 22.125C38.8625 22.125 38.2848 22.2481 37.8018 22.4943C37.3189 22.7405 37.0821 23.0909 37.0916 23.5455C37.0821 23.8674 37.2195 24.1657 37.5036 24.4403C37.7971 24.715 38.3606 24.928 39.1939 25.0795L43.6257 25.875C45.8606 26.2822 47.5225 26.9687 48.6115 27.9347C49.71 28.8911 50.264 30.1742 50.2734 31.7841C50.264 33.3371 49.8 34.6866 48.8814 35.8324C47.9723 36.9687 46.727 37.8494 45.1456 38.4744C43.5736 39.09 41.7791 39.3977 39.7621 39.3977C36.4287 39.3977 33.8198 38.7159 31.9354 37.3523C30.0604 35.9886 29.014 34.1894 28.7962 31.9545H36.5803C36.6844 32.6458 37.0253 33.1809 37.603 33.5597C38.1901 33.929 38.9287 34.1136 39.8189 34.1136C40.5386 34.1136 41.1304 33.9905 41.5945 33.7443C42.0679 33.4981 42.3094 33.1477 42.3189 32.6932C42.3094 32.2765 42.1011 31.9451 41.6939 31.6989C41.2962 31.4527 40.6712 31.2538 39.8189 31.1023L35.9553 30.4205C33.7299 30.0322 32.0632 29.2936 30.9553 28.2045C29.8473 27.1155 29.2981 25.714 29.3075 24C29.2981 22.4848 29.6958 21.2017 30.5007 20.1506C31.3151 19.09 32.4751 18.285 33.9808 17.7358C35.496 17.1771 37.2905 16.8977 39.3643 16.8977C42.5178 16.8977 45.0036 17.5511 46.8217 18.858C48.6494 20.1648 49.6106 21.9735 49.7053 24.2841ZM66.2891 17.1818V22.8636H51.9141V17.1818H66.2891ZM54.6982 11.9545H62.5391V31.983C62.5391 32.286 62.5911 32.5417 62.6953 32.75C62.7995 32.9489 62.9605 33.1004 63.1783 33.2045C63.3961 33.2992 63.6754 33.3466 64.0163 33.3466C64.2531 33.3466 64.5277 33.3182 64.8402 33.2614C65.1622 33.2045 65.3989 33.1572 65.5504 33.1193L66.6868 38.6307C66.3364 38.7348 65.8345 38.8627 65.1811 39.0142C64.5372 39.1657 63.7701 39.2652 62.88 39.3125C61.0807 39.4072 59.5703 39.2225 58.3487 38.7585C57.1271 38.285 56.2086 37.5417 55.593 36.5284C54.9775 35.5152 54.6792 34.2462 54.6982 32.7216V11.9545ZM69.4886 39V17.1818H77.3295V39H69.4886ZM73.4091 14.9091C72.3485 14.9091 71.4394 14.5587 70.6818 13.858C69.9242 13.1572 69.5455 12.3144 69.5455 11.3295C69.5455 10.3447 69.9242 9.50189 70.6818 8.80114C71.4394 8.10038 72.3485 7.75 73.4091 7.75C74.4792 7.75 75.3883 8.10038 76.1364 8.80114C76.8939 9.50189 77.2727 10.3447 77.2727 11.3295C77.2727 12.3144 76.8939 13.1572 76.1364 13.858C75.3883 14.5587 74.4792 14.9091 73.4091 14.9091ZM94.3359 17.1818V22.8636H79.9609V17.1818H94.3359ZM82.745 11.9545H90.5859V31.983C90.5859 32.286 90.638 32.5417 90.7422 32.75C90.8464 32.9489 91.0073 33.1004 91.2251 33.2045C91.4429 33.2992 91.7223 33.3466 92.0632 33.3466C92.3 33.3466 92.5746 33.3182 92.8871 33.2614C93.209 33.2045 93.4458 33.1572 93.5973 33.1193L94.7337 38.6307C94.3833 38.7348 93.8814 38.8627 93.228 39.0142C92.584 39.1657 91.817 39.2652 90.9268 39.3125C89.1276 39.4072 87.6172 39.2225 86.3956 38.7585C85.174 38.285 84.2554 37.5417 83.6399 36.5284C83.0244 35.5152 82.7261 34.2462 82.745 32.7216V11.9545Z" fill="#FCC729"/>
<rect x="4.94849" y="41" width="90.0619" height="5" fill="#FCC729"/>
<rect x="5" y="8" width="9" height="36" fill="#FCC729"/>
</svg>
